<svg width="976" height="700" viewBox="0 0 976 700" fill="none" xmlns="http://www.w3.org/2000/svg">
<g clip-path="url(#clip0)">
<path d="M785.497 654.176C786.17 653.507 802.147 637.328 815.69 598.939C828.114 563.718 840.651 502.299 829.818 409.71C809.293 234.306 914.541 122.52 915.609 121.412L912.493 118.42C912.223 118.701 885.162 147.147 861.086 197.084C829.216 263.303 816.882 337.234 825.528 410.212C846.017 585.317 783.088 650.478 782.45 651.116L785.497 654.176Z" fill="#F2F2F2"/>
<path d="M947.926 118.472C932.425 118.472 919.858 105.907 919.858 90.4058C919.858 74.905 932.425 62.3391 947.926 62.3391C963.427 62.3391 975.993 74.905 975.993 90.4058C975.993 105.907 963.427 118.472 947.926 118.472Z" fill="#F2F2F2"/>
<path d="M837.35 198.15C821.849 198.15 809.282 185.584 809.282 170.083C809.282 154.582 821.849 142.016 837.35 142.016C852.851 142.016 865.417 154.582 865.417 170.083C865.417 185.584 852.851 198.15 837.35 198.15Z" fill="#F2F2F2"/>
<path d="M879.69 279.604C864.189 279.604 851.623 267.038 851.623 251.537C851.623 236.036 864.189 223.471 879.69 223.471C895.192 223.471 907.758 236.036 907.758 251.537C907.758 267.038 895.192 279.604 879.69 279.604Z" fill="#F2F2F2"/>
<path d="M794.551 318.821C779.049 318.821 766.483 306.255 766.483 290.755C766.483 275.254 779.049 262.688 794.551 262.688C810.052 262.688 822.618 275.254 822.618 290.755C822.618 306.255 810.052 318.821 794.551 318.821Z" fill="#6C63FF"/>
<path d="M865.329 429.443C849.827 429.443 837.261 416.877 837.261 401.376C837.261 385.875 849.827 373.309 865.329 373.309C880.83 373.309 893.396 385.875 893.396 401.376C893.396 416.877 880.83 429.443 865.329 429.443Z" fill="#F2F2F2"/>
<path d="M768.78 651.158C768.78 651.158 812.434 590.7 742.925 520.391L768.78 651.158Z" fill="#F2F2F2"/>
<path d="M802.611 658.128C802.611 658.128 832.447 589.786 928.343 613.847L802.611 658.128Z" fill="#F2F2F2"/>
<path d="M190.897 695.038C190.223 694.369 174.247 678.19 160.704 639.8C148.28 604.58 135.742 543.161 146.576 450.572C167.101 275.168 61.8524 163.382 60.7851 162.273L63.9005 159.281C64.171 159.563 91.2317 188.008 115.308 237.946C147.177 304.165 159.512 378.096 150.866 451.074C130.376 626.179 193.306 691.339 193.943 691.978L190.897 695.038Z" fill="#F2F2F2"/>
<path d="M28.4678 159.334C12.9665 159.334 0.40033 146.768 0.40033 131.267C0.40033 115.767 12.9665 103.201 28.4678 103.201C43.9691 103.201 56.5353 115.767 56.5353 131.267C56.5353 146.768 43.9691 159.334 28.4678 159.334Z" fill="#F2F2F2"/>
<path d="M139.044 239.011C123.542 239.011 110.976 226.445 110.976 210.945C110.976 195.444 123.542 182.878 139.044 182.878C154.545 182.878 167.111 195.444 167.111 210.945C167.111 226.445 154.545 239.011 139.044 239.011Z" fill="#F2F2F2"/>
<path d="M96.7035 320.466C81.2022 320.466 68.6359 307.9 68.6359 292.399C68.6359 276.898 81.2022 264.332 96.7035 264.332C112.205 264.332 124.771 276.898 124.771 292.399C124.771 307.9 112.205 320.466 96.7035 320.466Z" fill="#F2F2F2"/>
<path d="M181.843 359.683C166.342 359.683 153.775 347.117 153.775 331.616C153.775 316.116 166.342 303.55 181.843 303.55C197.344 303.55 209.911 316.116 209.911 331.616C209.911 347.117 197.344 359.683 181.843 359.683Z" fill="#F2F2F2"/>
<path d="M111.065 470.304C95.5637 470.304 82.9974 457.739 82.9974 442.238C82.9974 426.737 95.5637 414.171 111.065 414.171C126.566 414.171 139.133 426.737 139.133 442.238C139.133 457.739 126.566 470.304 111.065 470.304Z" fill="#F2F2F2"/>
<path d="M207.614 692.019C207.614 692.019 163.96 631.561 233.469 561.253L207.614 692.019Z" fill="#F2F2F2"/>
<path d="M173.783 698.989C173.783 698.989 143.947 630.647 48.0507 654.709L173.783 698.989Z" fill="#F2F2F2"/>
<path d="M437.932 695.038C437.258 694.369 421.282 678.19 407.739 639.8C395.315 604.58 382.777 543.161 393.611 450.572C414.136 275.168 308.888 163.382 307.82 162.273L310.936 159.281C311.206 159.563 338.267 188.008 362.343 237.946C394.213 304.165 406.547 378.096 397.901 451.074C377.411 626.179 440.341 691.339 440.979 691.978L437.932 695.038Z" fill="#F2F2F2"/>
<path d="M275.503 159.334C260.002 159.334 247.435 146.768 247.435 131.267C247.435 115.767 260.002 103.201 275.503 103.201C291.004 103.201 303.57 115.767 303.57 131.267C303.57 146.768 291.004 159.334 275.503 159.334Z" fill="#F2F2F2"/>
<path d="M386.079 239.011C370.578 239.011 358.011 226.445 358.011 210.945C358.011 195.444 370.578 182.878 386.079 182.878C401.58 182.878 414.146 195.444 414.146 210.945C414.146 226.445 401.58 239.011 386.079 239.011Z" fill="#F2F2F2"/>
<path d="M343.739 320.466C328.237 320.466 315.671 307.9 315.671 292.399C315.671 276.898 328.237 264.332 343.739 264.332C359.24 264.332 371.806 276.898 371.806 292.399C371.806 307.9 359.24 320.466 343.739 320.466Z" fill="#F2F2F2"/>
<path d="M428.878 359.683C413.377 359.683 400.811 347.117 400.811 331.616C400.811 316.116 413.377 303.55 428.878 303.55C444.379 303.55 456.946 316.116 456.946 331.616C456.946 347.117 444.379 359.683 428.878 359.683Z" fill="#F2F2F2"/>
<path d="M358.1 470.304C342.599 470.304 330.033 457.739 330.033 442.238C330.033 426.737 342.599 414.171 358.1 414.171C373.601 414.171 386.168 426.737 386.168 442.238C386.168 457.739 373.601 470.304 358.1 470.304Z" fill="#F2F2F2"/>
<path d="M454.649 692.019C454.649 692.019 410.995 631.561 480.504 561.253L454.649 692.019Z" fill="#F2F2F2"/>
<path d="M420.818 698.989C420.818 698.989 390.982 630.647 295.086 654.709L420.818 698.989Z" fill="#F2F2F2"/>
<path d="M540.905 129.074V78.5174C556.612 74.9104 571.397 68.0793 584.324 58.4572C597.251 48.8351 608.037 36.6319 615.999 22.6215L616 22.6224C619.82 25.4546 624.452 26.9788 629.207 26.9686H669.353C658.64 53.668 641.165 77.1209 618.645 95.0228C596.124 112.925 569.334 124.66 540.905 129.074Z" fill="#3F3D56"/>
<path d="M540.906 75.6199V27.0523C540.904 23.4994 541.603 19.9812 542.963 16.6985C544.322 13.4159 546.314 10.4333 548.827 7.92102C551.339 5.40876 554.322 3.41615 557.605 2.05703C560.887 0.697905 564.406 -0.00108229 567.959 1.25784e-06H606.936V4.68981C606.932 7.69771 607.539 10.6751 608.72 13.4414C609.901 16.2077 611.632 18.7053 613.808 20.7827C606.107 34.4657 595.652 46.4033 583.104 55.8419C570.556 65.2805 556.188 72.0149 540.906 75.6199Z" fill="#3F3D56"/>
<path d="M728.4 26.9687H753.504C759.412 26.967 765.077 24.6189 769.253 20.4409C773.429 16.2629 775.775 10.5972 775.774 4.68981V9.72749e-08H812.347C815.9 -0.000301178 819.418 0.699221 822.7 2.05862C825.982 3.41802 828.965 5.41066 831.477 7.92276C833.989 10.4349 835.982 13.4172 837.341 16.6995C838.701 19.9817 839.4 23.4996 839.4 27.0523V629.019C839.404 632.572 838.706 636.09 837.348 639.373C835.989 642.656 833.997 645.638 831.483 648.15C828.97 650.661 825.986 652.652 822.703 654.008C819.419 655.364 815.9 656.059 812.347 656.053H567.958C566.844 656.055 565.73 655.987 564.624 655.848C558.081 655.032 552.061 651.856 547.694 646.917C543.327 641.977 540.913 635.612 540.905 629.019V185.881C629.791 175.582 703.854 112.164 728.4 26.9687Z" fill="#3F3D56"/>
<path d="M672.399 26.9687H725.466C701.04 110.585 628.249 172.796 540.906 183.049V131.953C570.094 127.491 597.6 115.446 620.675 97.0229C643.75 78.6 661.585 54.4439 672.399 26.9687Z" fill="#3F3D56"/>
<path d="M117.18 697.621H577.817V699.479H117.18V697.621Z" fill="#3F3D56"/>
<path d="M771.316 106.796C767.726 106.796 764.815 103.885 764.815 100.295C764.815 96.7047 767.726 93.7942 771.316 93.7942C774.907 93.7942 777.817 96.7047 777.817 100.295C777.817 103.885 774.907 106.796 771.316 106.796Z" fill="#F2F2F2"/>
<path d="M792.677 148.421H794.369V146.729H794.699V148.421H796.392V148.751H794.699V150.443H794.369V148.751H792.677V148.421Z" fill="#F2F2F2"/>
<path d="M678.446 63.9113H680.138V62.2193H680.468V63.9113H682.161V64.242H680.468V65.934H680.138V64.242H678.446V63.9113Z" fill="#F2F2F2"/>
<path d="M775.96 215.285H777.652V213.593H777.982V215.285H779.675V215.616H777.982V217.308H777.652V215.616H775.96V215.285Z" fill="#F2F2F2"/>
<path d="M697.949 166.066H699.641V164.373H699.971V166.066H701.664V166.396H699.971V168.088H699.641V166.396H697.949V166.066Z" fill="#F2F2F2"/>
<path d="M586.505 196.712H588.197V195.02H588.526V196.712H590.219V197.042H588.526V198.734H588.197V197.042H586.505V196.712Z" fill="#F2F2F2"/>
<path d="M606.007 119.797C603.955 119.797 602.292 118.134 602.292 116.082C602.292 114.031 603.955 112.368 606.007 112.368C608.059 112.368 609.722 114.031 609.722 116.082C609.722 118.134 608.059 119.797 606.007 119.797Z" fill="#FC766A"/>
<path d="M739.09 203.192L741.198 203.517C740.539 207.733 740.019 212.042 739.638 216.305L737.511 216.119C737.892 211.801 738.421 207.455 739.09 203.192Z" fill="#E6E6E6"/>
<path d="M744.857 177.802L746.901 178.424C745.665 182.51 744.56 186.699 743.622 190.869L741.533 190.395C742.489 186.179 743.613 181.944 744.857 177.802Z" fill="#E6E6E6"/>
<path d="M754.061 153.452L756.002 154.344C754.219 158.235 752.547 162.228 751.033 166.221L749.037 165.469C750.569 161.429 752.25 157.38 754.061 153.452Z" fill="#E6E6E6"/>
<path d="M766.505 130.625L768.307 131.768C766.013 135.371 763.812 139.104 761.769 142.847L759.893 141.825C761.955 138.036 764.184 134.266 766.505 130.625Z" fill="#E6E6E6"/>
<path d="M781.978 109.702L783.603 111.086C780.835 114.336 778.142 117.735 775.597 121.172L773.889 119.899C776.452 116.426 779.173 112.99 781.978 109.702Z" fill="#E6E6E6"/>
<path d="M800.162 91.0732L801.583 92.6612C798.388 95.5123 795.258 98.5119 792.277 101.567L790.745 100.072C793.763 96.9795 796.93 93.952 800.162 91.0732Z" fill="#E6E6E6"/>
<path d="M820.705 75.0814L821.903 76.8459C818.355 79.2326 814.845 81.7772 811.473 84.4053L810.155 82.7243C813.572 80.0684 817.12 77.496 820.705 75.0814Z" fill="#E6E6E6"/>
<path d="M839.399 63.9745V66.389C837.18 67.5499 834.979 68.7665 832.824 70.0109L831.756 68.1628C834.264 66.714 836.811 65.3179 839.399 63.9745Z" fill="#E6E6E6"/>
<path d="M739.573 403.788C739.226 401.712 738.909 399.591 738.63 397.487L736.514 397.768C736.796 399.896 737.116 402.039 737.466 404.139L739.573 403.788Z" fill="#E6E6E6"/>
<path d="M745.525 428.843L743.484 429.479C742.204 425.352 741.045 421.124 740.041 416.913L742.121 416.421C743.115 420.587 744.254 424.762 745.525 428.843Z" fill="#E6E6E6"/>
<path d="M754.85 452.832L752.913 453.741C751.071 449.833 749.346 445.806 747.782 441.776L749.775 440.998C751.321 444.985 753.026 448.968 754.85 452.832Z" fill="#E6E6E6"/>
<path d="M767.399 475.338L765.608 476.5C763.246 472.879 760.98 469.124 758.871 465.347L760.733 464.303C762.815 468.038 765.062 471.749 767.399 475.338Z" fill="#E6E6E6"/>
<path d="M782.923 495.897L781.305 497.299C778.464 494.023 775.709 490.614 773.099 487.167L774.809 485.889C777.383 489.296 780.11 492.662 782.923 495.897Z" fill="#E6E6E6"/>
<path d="M801.103 514.141L799.696 515.746C796.431 512.898 793.238 509.892 790.186 506.838L791.697 505.326C794.713 508.348 797.879 511.312 801.103 514.141Z" fill="#E6E6E6"/>
<path d="M821.583 529.734L820.404 531.52C816.798 529.14 813.217 526.602 809.781 523.987L811.072 522.282C814.475 524.875 818.012 527.384 821.583 529.734Z" fill="#E6E6E6"/>
<path d="M831.515 538.304C834.097 539.762 836.734 541.174 839.399 542.511V540.115C837.096 538.945 834.812 537.71 832.573 536.456L831.515 538.304Z" fill="#E6E6E6"/>
<path d="M738.946 229.479L736.812 229.44C736.772 231.596 736.769 233.763 736.803 235.881L738.937 235.848C738.905 233.753 738.908 231.61 738.946 229.479Z" fill="#E6E6E6"/>
<path d="M629.323 135.236C605.152 135.236 585.558 156.98 585.558 183.804V217.883H596.039L602.107 205.257L600.59 217.883H667.962L673.479 206.404L672.1 217.883H679.685V191.125C679.685 160.258 657.137 135.236 629.323 135.236Z" fill="#2F2E41"/>
<path d="M705.825 380.886C705.825 380.886 716.969 413.39 702.11 412.461C687.25 411.533 688.179 377.172 688.179 377.172L705.825 380.886Z" fill="#FFB9B9"/>
<path d="M684.464 229.513H694.68L703.967 319.594C703.967 319.594 714.183 320.523 709.539 330.738C704.896 340.953 704.896 337.239 705.825 344.668C706.753 352.098 707.682 355.812 707.682 356.741C707.682 357.67 703.038 356.741 707.682 363.242C712.325 369.742 715.112 372.528 715.112 376.243C715.112 379.958 710.468 389.245 710.468 389.245C710.468 389.245 688.179 374.386 686.322 386.459L674.249 323.309L670.534 278.732L684.464 229.513Z" fill="#5B84B1"/>
<path d="M586.022 241.585H578.592L582.307 343.74L600.881 304.735L586.022 241.585Z" fill="#6C63FF"/>
<path opacity="0.1" d="M586.022 241.585H578.592L582.307 343.74L600.881 304.735L586.022 241.585Z" fill="#5B84B1"/>
<path d="M642.673 561.049C642.673 561.049 568.434 528.587 560.665 478.297C560.278 475.797 560.062 473.274 560.018 470.745C559.089 416.176 572.091 404.103 572.091 404.103L656.603 417.105L642.673 561.049Z" fill="#6C63FF"/>
<path opacity="0.1" d="M642.673 561.049C642.673 561.049 568.434 528.587 560.665 478.297C560.278 475.797 560.062 473.274 560.018 470.745C559.089 416.176 572.091 404.103 572.091 404.103L656.603 417.105L642.673 561.049Z" fill="#5B84B1"/>
<path d="M614.812 422.677L596.238 508.115L587.879 536.904C587.879 536.904 584.164 561.049 576.735 577.765C569.305 594.482 560.018 627.914 560.018 627.914H542.373L560.018 522.045C560.018 522.045 566.519 425.463 573.949 418.033C581.378 410.604 614.812 422.677 614.812 422.677Z" fill="#FFB9B9"/>
<path d="M623.634 209.546C607.734 209.546 594.844 196.657 594.844 180.757C594.844 164.857 607.734 151.968 623.634 151.968C639.534 151.968 652.424 164.857 652.424 180.757C652.424 196.657 639.534 209.546 623.634 209.546Z" fill="#FFB9B9"/>
<path d="M643.602 196.08C643.602 196.08 639.887 219.297 661.247 225.798C682.607 232.299 615.74 326.095 615.74 326.095C615.74 326.095 586.022 243.443 593.451 236.013C593.451 236.013 620.384 232.299 617.598 216.511C614.812 200.724 612.954 198.866 612.954 198.866L643.602 196.08Z" fill="#FFB9B9"/>
<path d="M632.457 437.536L568.376 420.819L602.738 335.381L632.457 437.536Z" fill="#3F3D56"/>
<path d="M540.515 620.484L567.448 622.342C567.448 622.342 572.091 642.773 564.662 655.774C560.761 662.6 558.14 673.009 556.531 681.358C555.601 686.446 552.965 691.065 549.057 694.452C545.149 697.84 540.202 699.795 535.034 699.993C529.174 700.138 524.171 698.14 523.799 691.064C522.87 673.419 538.658 640.915 538.658 640.915L540.515 620.484Z" fill="#2F2E41"/>
<path d="M681.688 656.053H707.069C706.172 649.904 704.79 643.837 702.936 637.906V637.897C701.943 634.628 701.181 632.557 701.181 632.557L682.607 643.701L682.152 649.905L681.688 656.053Z" fill="#2F2E41"/>
<path d="M617.598 307.521C617.598 307.521 633.594 244.486 656.708 223.998C656.708 223.998 692.823 220.226 694.68 230.441L669.605 302.878C669.605 302.878 676.106 311.236 668.676 320.523L705.825 621.413C705.825 621.413 701.181 626.056 703.038 631.629C704.896 637.201 698.395 651.131 698.395 651.131C698.395 651.131 682.607 648.345 668.676 651.131C654.746 653.917 625.956 634.415 625.956 634.415L602.739 373.457C602.739 373.457 565.59 424.534 560.018 478.397V420.819C560.018 420.819 565.59 409.675 563.733 403.175C561.876 396.674 568.377 383.672 568.377 383.672L573.949 364.17L592.523 308.45C592.523 308.45 579.521 290.805 583.236 270.374L578.592 241.585C578.592 241.585 604.136 227.756 609.01 230.956C609.01 230.956 595.309 270.374 617.598 307.521Z" fill="#5B84B1"/>
<path d="M647.799 146.603C645.693 143.775 642.964 141.47 639.823 139.868C636.682 138.265 633.214 137.407 629.689 137.361H628.829C612.263 137.361 598.833 152.352 598.833 170.844V170.844H604.384L605.28 164.02L606.595 170.844H639.518L642.276 165.071L641.587 170.844H648.063C651.086 185.853 646.743 200.862 635.036 215.872H646.069L651.585 204.326L650.206 215.872H671.238L675.376 189.317C675.376 169.429 663.82 152.565 647.799 146.603Z" fill="#2F2E41"/>
<path d="M278.919 648.982C287.219 679.663 315.648 698.664 315.648 698.664C315.648 698.664 330.62 667.922 322.32 637.242C314.02 606.561 285.591 587.56 285.591 587.56C285.591 587.56 270.619 618.302 278.919 648.982Z" fill="#5B84B1"/>
<path d="M354.425 648.982C346.125 679.663 317.696 698.664 317.696 698.664C317.696 698.664 302.724 667.922 311.024 637.242C319.324 606.561 347.753 587.56 347.753 587.56C347.753 587.56 362.725 618.302 354.425 648.982Z" fill="#5B84B1"/>
<path d="M342.229 642.389C319.454 664.559 316.672 698.639 316.672 698.639C316.672 698.639 350.816 696.775 373.591 674.605C396.366 652.435 399.148 618.355 399.148 618.355C399.148 618.355 365.004 620.219 342.229 642.389Z" fill="#3F3D56"/>
<path d="M291.115 642.389C313.89 664.559 316.672 698.639 316.672 698.639C316.672 698.639 282.528 696.775 259.753 674.605C236.978 652.435 234.197 618.355 234.197 618.355C234.197 618.355 268.34 620.219 291.115 642.389Z" fill="#3F3D56"/>
</g>
<defs>
<clipPath id="clip0">
<rect width="975.606" height="700" fill="white" transform="matrix(-1 0 0 1 976 0)"/>
</clipPath>
</defs>
</svg>
